<mxfile host="app.diagrams.net" agent="Mozilla/5.0 (iPad; CPU OS 18_5_0 like Mac OS X) AppleWebKit/605.1.15 (KHTML, like Gecko) GSA/376.0.777690323 Mobile/15E148 Safari/604.1" version="28.0.1">
  <diagram name="Page-1" id="DssRzBVpUx6aVscQZ6Vy">
    <mxGraphModel dx="2907" dy="918" grid="1" gridSize="10" guides="1" tooltips="1" connect="1" arrows="1" fold="1" page="1" pageScale="1" pageWidth="827" pageHeight="1169" math="0" shadow="0">
      <root>
        <mxCell id="0" />
        <mxCell id="1" parent="0" />
        <mxCell id="rm-N7uv2QARpRpkkR8JZ-1" value="ทบทวนสัญลักษณ์" style="swimlane;fontFamily=Sarabun;fontSource=https%3A%2F%2Ffonts.googleapis.com%2Fcss%3Ffamily%3DSarabun;" parent="1" vertex="1">
          <mxGeometry x="-720" y="20" width="650" height="290" as="geometry" />
        </mxCell>
        <mxCell id="rm-N7uv2QARpRpkkR8JZ-2" value="&lt;font data-font-src=&quot;https://fonts.googleapis.com/css?family=Sarabun&quot; face=&quot;Sarabun&quot;&gt;เริ่มต้น&lt;/font&gt;" style="ellipse;whiteSpace=wrap;html=1;" parent="rm-N7uv2QARpRpkkR8JZ-1" vertex="1">
          <mxGeometry x="20" y="40" width="130" height="30" as="geometry" />
        </mxCell>
        <mxCell id="rm-N7uv2QARpRpkkR8JZ-3" value="" style="endArrow=classic;html=1;rounded=0;" parent="rm-N7uv2QARpRpkkR8JZ-1" edge="1">
          <mxGeometry width="50" height="50" relative="1" as="geometry">
            <mxPoint x="84.5" y="70" as="sourcePoint" />
            <mxPoint x="84.5" y="120" as="targetPoint" />
          </mxGeometry>
        </mxCell>
        <mxCell id="rm-N7uv2QARpRpkkR8JZ-4" value="&lt;font face=&quot;Sarabun&quot;&gt;สิ้นสุด&lt;/font&gt;" style="ellipse;whiteSpace=wrap;html=1;" parent="rm-N7uv2QARpRpkkR8JZ-1" vertex="1">
          <mxGeometry x="150" y="90" width="130" height="30" as="geometry" />
        </mxCell>
        <mxCell id="rm-N7uv2QARpRpkkR8JZ-5" value="" style="endArrow=classic;html=1;rounded=0;" parent="rm-N7uv2QARpRpkkR8JZ-1" edge="1">
          <mxGeometry width="50" height="50" relative="1" as="geometry">
            <mxPoint x="214.5" y="40" as="sourcePoint" />
            <mxPoint x="214.5" y="90" as="targetPoint" />
          </mxGeometry>
        </mxCell>
        <mxCell id="rm-N7uv2QARpRpkkR8JZ-6" value="กระบวนการ" style="rounded=0;whiteSpace=wrap;html=1;fontFamily=Sarabun;fontSource=https%3A%2F%2Ffonts.googleapis.com%2Fcss%3Ffamily%3DSarabun;" parent="rm-N7uv2QARpRpkkR8JZ-1" vertex="1">
          <mxGeometry x="320" y="70" width="120" height="30" as="geometry" />
        </mxCell>
        <mxCell id="rm-N7uv2QARpRpkkR8JZ-7" value="" style="endArrow=classic;html=1;rounded=0;" parent="rm-N7uv2QARpRpkkR8JZ-1" edge="1">
          <mxGeometry width="50" height="50" relative="1" as="geometry">
            <mxPoint x="379" y="40" as="sourcePoint" />
            <mxPoint x="379.5" y="70" as="targetPoint" />
          </mxGeometry>
        </mxCell>
        <mxCell id="rm-N7uv2QARpRpkkR8JZ-8" value="" style="endArrow=classic;html=1;rounded=0;" parent="rm-N7uv2QARpRpkkR8JZ-1" edge="1">
          <mxGeometry width="50" height="50" relative="1" as="geometry">
            <mxPoint x="379.75" y="100" as="sourcePoint" />
            <mxPoint x="380.25" y="130" as="targetPoint" />
          </mxGeometry>
        </mxCell>
        <mxCell id="rm-N7uv2QARpRpkkR8JZ-9" value="ประโยคเงื่อนไข" style="rhombus;whiteSpace=wrap;html=1;fontFamily=Sarabun;fontSource=https%3A%2F%2Ffonts.googleapis.com%2Fcss%3Ffamily%3DSarabun;" parent="rm-N7uv2QARpRpkkR8JZ-1" vertex="1">
          <mxGeometry x="490" y="60" width="100" height="60" as="geometry" />
        </mxCell>
        <mxCell id="rm-N7uv2QARpRpkkR8JZ-10" value="" style="endArrow=classic;html=1;rounded=0;" parent="rm-N7uv2QARpRpkkR8JZ-1" edge="1">
          <mxGeometry width="50" height="50" relative="1" as="geometry">
            <mxPoint x="539.71" y="30" as="sourcePoint" />
            <mxPoint x="540.21" y="60" as="targetPoint" />
          </mxGeometry>
        </mxCell>
        <mxCell id="rm-N7uv2QARpRpkkR8JZ-11" value="" style="endArrow=classic;html=1;rounded=0;" parent="rm-N7uv2QARpRpkkR8JZ-1" edge="1">
          <mxGeometry width="50" height="50" relative="1" as="geometry">
            <mxPoint x="539.71" y="120" as="sourcePoint" />
            <mxPoint x="540" y="175" as="targetPoint" />
          </mxGeometry>
        </mxCell>
        <mxCell id="rm-N7uv2QARpRpkkR8JZ-12" value="จริง" style="edgeLabel;html=1;align=center;verticalAlign=middle;resizable=0;points=[];fontFamily=Sarabun;fontSource=https%3A%2F%2Ffonts.googleapis.com%2Fcss%3Ffamily%3DSarabun;" parent="rm-N7uv2QARpRpkkR8JZ-11" vertex="1" connectable="0">
          <mxGeometry x="-0.4142" y="-1" relative="1" as="geometry">
            <mxPoint as="offset" />
          </mxGeometry>
        </mxCell>
        <mxCell id="rm-N7uv2QARpRpkkR8JZ-13" value="" style="endArrow=classic;html=1;rounded=0;exitX=1;exitY=0.5;exitDx=0;exitDy=0;" parent="rm-N7uv2QARpRpkkR8JZ-1" source="rm-N7uv2QARpRpkkR8JZ-9" edge="1">
          <mxGeometry width="50" height="50" relative="1" as="geometry">
            <mxPoint x="620" y="95" as="sourcePoint" />
            <mxPoint x="610" y="175" as="targetPoint" />
            <Array as="points">
              <mxPoint x="610" y="90" />
            </Array>
          </mxGeometry>
        </mxCell>
        <mxCell id="rm-N7uv2QARpRpkkR8JZ-14" value="&lt;font data-font-src=&quot;https://fonts.googleapis.com/css?family=Sarabun&quot; face=&quot;Sarabun&quot;&gt;เท็จ&lt;/font&gt;" style="edgeLabel;html=1;align=center;verticalAlign=middle;resizable=0;points=[];" parent="rm-N7uv2QARpRpkkR8JZ-13" vertex="1" connectable="0">
          <mxGeometry x="-0.0019" y="-2" relative="1" as="geometry">
            <mxPoint as="offset" />
          </mxGeometry>
        </mxCell>
        <mxCell id="rm-N7uv2QARpRpkkR8JZ-15" value="&lt;font data-font-src=&quot;https://fonts.googleapis.com/css?family=Sarabun&quot; face=&quot;Sarabun&quot;&gt;ฟังก์ชัน/โมดูล&lt;/font&gt;" style="shape=process;whiteSpace=wrap;html=1;backgroundOutline=1;" parent="rm-N7uv2QARpRpkkR8JZ-1" vertex="1">
          <mxGeometry x="25" y="180" width="120" height="30" as="geometry" />
        </mxCell>
        <mxCell id="rm-N7uv2QARpRpkkR8JZ-16" value="" style="endArrow=classic;html=1;rounded=0;" parent="rm-N7uv2QARpRpkkR8JZ-1" edge="1">
          <mxGeometry width="50" height="50" relative="1" as="geometry">
            <mxPoint x="84.70999999999998" y="150" as="sourcePoint" />
            <mxPoint x="85.20999999999998" y="180" as="targetPoint" />
          </mxGeometry>
        </mxCell>
        <mxCell id="rm-N7uv2QARpRpkkR8JZ-17" value="" style="endArrow=classic;html=1;rounded=0;" parent="rm-N7uv2QARpRpkkR8JZ-1" edge="1">
          <mxGeometry width="50" height="50" relative="1" as="geometry">
            <mxPoint x="84.70999999999998" y="210" as="sourcePoint" />
            <mxPoint x="85.20999999999998" y="240" as="targetPoint" />
          </mxGeometry>
        </mxCell>
        <mxCell id="rm-N7uv2QARpRpkkR8JZ-18" value="" style="strokeWidth=2;html=1;shape=mxgraph.flowchart.start_2;whiteSpace=wrap;" parent="rm-N7uv2QARpRpkkR8JZ-1" vertex="1">
          <mxGeometry x="205" y="185" width="20" height="20" as="geometry" />
        </mxCell>
        <mxCell id="rm-N7uv2QARpRpkkR8JZ-19" value="" style="endArrow=classic;html=1;rounded=0;" parent="rm-N7uv2QARpRpkkR8JZ-1" edge="1">
          <mxGeometry width="50" height="50" relative="1" as="geometry">
            <mxPoint x="214.70999999999998" y="155" as="sourcePoint" />
            <mxPoint x="215.20999999999998" y="185" as="targetPoint" />
          </mxGeometry>
        </mxCell>
        <mxCell id="rm-N7uv2QARpRpkkR8JZ-20" value="" style="endArrow=classic;html=1;rounded=0;entryX=0;entryY=0.5;entryDx=0;entryDy=0;entryPerimeter=0;" parent="rm-N7uv2QARpRpkkR8JZ-1" target="rm-N7uv2QARpRpkkR8JZ-18" edge="1">
          <mxGeometry width="50" height="50" relative="1" as="geometry">
            <mxPoint x="189.99999999999997" y="155" as="sourcePoint" />
            <mxPoint x="190.49999999999997" y="185" as="targetPoint" />
            <Array as="points">
              <mxPoint x="190" y="180" />
            </Array>
          </mxGeometry>
        </mxCell>
        <mxCell id="rm-N7uv2QARpRpkkR8JZ-21" value="" style="endArrow=classic;html=1;rounded=0;entryX=1;entryY=0.5;entryDx=0;entryDy=0;entryPerimeter=0;" parent="rm-N7uv2QARpRpkkR8JZ-1" target="rm-N7uv2QARpRpkkR8JZ-18" edge="1">
          <mxGeometry width="50" height="50" relative="1" as="geometry">
            <mxPoint x="239.99999999999997" y="155" as="sourcePoint" />
            <mxPoint x="240.49999999999997" y="185" as="targetPoint" />
            <Array as="points">
              <mxPoint x="240" y="180" />
            </Array>
          </mxGeometry>
        </mxCell>
        <mxCell id="rm-N7uv2QARpRpkkR8JZ-22" value="" style="endArrow=classic;html=1;rounded=0;" parent="rm-N7uv2QARpRpkkR8JZ-1" edge="1">
          <mxGeometry width="50" height="50" relative="1" as="geometry">
            <mxPoint x="214.70999999999998" y="205" as="sourcePoint" />
            <mxPoint x="215.20999999999998" y="235" as="targetPoint" />
          </mxGeometry>
        </mxCell>
        <mxCell id="rm-N7uv2QARpRpkkR8JZ-23" value="&lt;font data-font-src=&quot;https://fonts.googleapis.com/css?family=Sarabun&quot; face=&quot;Sarabun&quot;&gt;ตัวเชื่อม&lt;/font&gt;" style="text;html=1;align=center;verticalAlign=middle;resizable=0;points=[];autosize=1;strokeColor=none;fillColor=none;" parent="rm-N7uv2QARpRpkkR8JZ-1" vertex="1">
          <mxGeometry x="220" y="190" width="60" height="30" as="geometry" />
        </mxCell>
        <mxCell id="rm-N7uv2QARpRpkkR8JZ-24" value="" style="endArrow=classic;html=1;rounded=0;" parent="rm-N7uv2QARpRpkkR8JZ-1" edge="1">
          <mxGeometry width="50" height="50" relative="1" as="geometry">
            <mxPoint x="353.71" y="165" as="sourcePoint" />
            <mxPoint x="354.21" y="195" as="targetPoint" />
          </mxGeometry>
        </mxCell>
        <mxCell id="rm-N7uv2QARpRpkkR8JZ-25" value="" style="verticalLabelPosition=bottom;verticalAlign=top;html=1;shape=offPageConnector;rounded=0;size=0.5;" parent="rm-N7uv2QARpRpkkR8JZ-1" vertex="1">
          <mxGeometry x="339" y="195" width="30" height="30" as="geometry" />
        </mxCell>
        <mxCell id="rm-N7uv2QARpRpkkR8JZ-26" value="" style="endArrow=classic;html=1;rounded=0;" parent="rm-N7uv2QARpRpkkR8JZ-1" edge="1">
          <mxGeometry width="50" height="50" relative="1" as="geometry">
            <mxPoint x="405.71" y="195" as="sourcePoint" />
            <mxPoint x="406.21" y="225" as="targetPoint" />
          </mxGeometry>
        </mxCell>
        <mxCell id="rm-N7uv2QARpRpkkR8JZ-27" value="" style="verticalLabelPosition=bottom;verticalAlign=top;html=1;shape=offPageConnector;rounded=0;size=0.5;" parent="rm-N7uv2QARpRpkkR8JZ-1" vertex="1">
          <mxGeometry x="391" y="165" width="30" height="30" as="geometry" />
        </mxCell>
        <mxCell id="rm-N7uv2QARpRpkkR8JZ-28" value="หน้าต่อไป" style="text;html=1;align=center;verticalAlign=middle;resizable=0;points=[];autosize=1;strokeColor=none;fillColor=none;fontFamily=Sarabun;fontSource=https%3A%2F%2Ffonts.googleapis.com%2Fcss%3Ffamily%3DSarabun;" parent="rm-N7uv2QARpRpkkR8JZ-1" vertex="1">
          <mxGeometry x="345" y="220" width="70" height="30" as="geometry" />
        </mxCell>
        <mxCell id="rm-N7uv2QARpRpkkR8JZ-29" value="ก" style="text;html=1;align=center;verticalAlign=middle;resizable=0;points=[];autosize=1;strokeColor=none;fillColor=none;fontFamily=Sarabun;fontSource=https%3A%2F%2Ffonts.googleapis.com%2Fcss%3Ffamily%3DSarabun;" parent="rm-N7uv2QARpRpkkR8JZ-1" vertex="1">
          <mxGeometry x="339" y="190" width="30" height="30" as="geometry" />
        </mxCell>
        <mxCell id="rm-N7uv2QARpRpkkR8JZ-30" value="ก" style="text;html=1;align=center;verticalAlign=middle;resizable=0;points=[];autosize=1;strokeColor=none;fillColor=none;fontFamily=Sarabun;fontSource=https%3A%2F%2Ffonts.googleapis.com%2Fcss%3Ffamily%3DSarabun;" parent="rm-N7uv2QARpRpkkR8JZ-1" vertex="1">
          <mxGeometry x="391" y="160" width="30" height="30" as="geometry" />
        </mxCell>
        <mxCell id="rm-N7uv2QARpRpkkR8JZ-31" value="แสดงผล/รับค่า" style="shape=parallelogram;perimeter=parallelogramPerimeter;whiteSpace=wrap;html=1;fixedSize=1;fontFamily=Sarabun;fontSource=https%3A%2F%2Ffonts.googleapis.com%2Fcss%3Ffamily%3DSarabun;" parent="rm-N7uv2QARpRpkkR8JZ-1" vertex="1">
          <mxGeometry x="450" y="210" width="120" height="30" as="geometry" />
        </mxCell>
        <mxCell id="rm-N7uv2QARpRpkkR8JZ-32" value="" style="endArrow=classic;html=1;rounded=0;" parent="rm-N7uv2QARpRpkkR8JZ-1" edge="1">
          <mxGeometry width="50" height="50" relative="1" as="geometry">
            <mxPoint x="509.71" y="180" as="sourcePoint" />
            <mxPoint x="510.21" y="210" as="targetPoint" />
          </mxGeometry>
        </mxCell>
        <mxCell id="rm-N7uv2QARpRpkkR8JZ-33" value="" style="endArrow=classic;html=1;rounded=0;" parent="rm-N7uv2QARpRpkkR8JZ-1" edge="1">
          <mxGeometry width="50" height="50" relative="1" as="geometry">
            <mxPoint x="509.71" y="240" as="sourcePoint" />
            <mxPoint x="510.21" y="270" as="targetPoint" />
          </mxGeometry>
        </mxCell>
        <mxCell id="rm-N7uv2QARpRpkkR8JZ-34" value="แก้ไขโจทย์ปัญหา" style="swimlane;fontFamily=Sarabun;fontSource=https%3A%2F%2Ffonts.googleapis.com%2Fcss%3Ffamily%3DSarabun;" parent="1" vertex="1">
          <mxGeometry x="-764" y="530" width="700" height="2270" as="geometry" />
        </mxCell>
        <mxCell id="rm-N7uv2QARpRpkkR8JZ-35" value="&lt;font data-font-src=&quot;https://fonts.googleapis.com/css?family=Sarabun&quot; face=&quot;Sarabun&quot;&gt;เริ่มต้น&lt;/font&gt;" style="ellipse;whiteSpace=wrap;html=1;" parent="rm-N7uv2QARpRpkkR8JZ-34" vertex="1">
          <mxGeometry x="300" y="43.5" width="130" height="30" as="geometry" />
        </mxCell>
        <mxCell id="rm-N7uv2QARpRpkkR8JZ-36" value="&lt;font face=&quot;Sarabun&quot;&gt;สิ้นสุด&lt;/font&gt;" style="ellipse;whiteSpace=wrap;html=1;" parent="rm-N7uv2QARpRpkkR8JZ-34" vertex="1">
          <mxGeometry x="300" y="2110" width="130" height="30" as="geometry" />
        </mxCell>
        <mxCell id="as8NRprZfqHVH22VCf2Z-28" value="&lt;span style=&quot;font-weight: normal; font-style: normal;&quot; class=&quot;s1&quot;&gt;จัดทำ Portfolio ให้น่าดึงดูดลูกค้าน่าสนใจ&lt;/span&gt;" style="whiteSpace=wrap;html=1;fontFamily=Comic Sans MS;fontSize=12;" vertex="1" parent="rm-N7uv2QARpRpkkR8JZ-34">
          <mxGeometry x="306" y="149" width="120" height="60" as="geometry" />
        </mxCell>
        <mxCell id="as8NRprZfqHVH22VCf2Z-32" value="" style="edgeStyle=none;orthogonalLoop=1;jettySize=auto;html=1;rounded=0;fontSize=12;startSize=8;endSize=8;curved=1;" edge="1" parent="rm-N7uv2QARpRpkkR8JZ-34">
          <mxGeometry width="140" relative="1" as="geometry">
            <mxPoint x="365.58" y="75" as="sourcePoint" />
            <mxPoint x="366" y="99" as="targetPoint" />
            <Array as="points" />
          </mxGeometry>
        </mxCell>
        <mxCell id="as8NRprZfqHVH22VCf2Z-34" value="" style="edgeStyle=none;curved=1;rounded=0;orthogonalLoop=1;jettySize=auto;html=1;fontSize=12;startSize=8;endSize=8;exitX=0.5;exitY=1;exitDx=0;exitDy=0;" edge="1" parent="rm-N7uv2QARpRpkkR8JZ-34" source="as8NRprZfqHVH22VCf2Z-33">
          <mxGeometry relative="1" as="geometry">
            <mxPoint x="366" y="79" as="sourcePoint" />
            <mxPoint x="365.79" y="148.9999999999999" as="targetPoint" />
          </mxGeometry>
        </mxCell>
        <mxCell id="as8NRprZfqHVH22VCf2Z-33" value="" style="ellipse;whiteSpace=wrap;html=1;" vertex="1" parent="rm-N7uv2QARpRpkkR8JZ-34">
          <mxGeometry x="361" y="99" width="10" height="10" as="geometry" />
        </mxCell>
        <mxCell id="as8NRprZfqHVH22VCf2Z-35" style="edgeStyle=none;curved=1;rounded=0;orthogonalLoop=1;jettySize=auto;html=1;entryX=0.5;entryY=0;entryDx=0;entryDy=0;fontSize=12;startSize=8;endSize=8;" edge="1" parent="rm-N7uv2QARpRpkkR8JZ-34" source="as8NRprZfqHVH22VCf2Z-28" target="as8NRprZfqHVH22VCf2Z-28">
          <mxGeometry relative="1" as="geometry" />
        </mxCell>
        <mxCell id="as8NRprZfqHVH22VCf2Z-42" value="" style="edgeStyle=none;curved=1;rounded=0;orthogonalLoop=1;jettySize=auto;html=1;fontSize=12;startSize=8;endSize=8;" edge="1" parent="rm-N7uv2QARpRpkkR8JZ-34" source="as8NRprZfqHVH22VCf2Z-36">
          <mxGeometry relative="1" as="geometry">
            <mxPoint x="365" y="320" as="targetPoint" />
          </mxGeometry>
        </mxCell>
        <mxCell id="as8NRprZfqHVH22VCf2Z-36" value="&lt;br&gt;คิดว่า Portfolio ตัวเอง&lt;div&gt;น่าสนใจละยัง&lt;div&gt;&lt;br&gt;&lt;/div&gt;&lt;/div&gt;" style="rhombus;whiteSpace=wrap;html=1;" vertex="1" parent="rm-N7uv2QARpRpkkR8JZ-34">
          <mxGeometry x="265" y="229" width="200" height="80" as="geometry" />
        </mxCell>
        <mxCell id="as8NRprZfqHVH22VCf2Z-37" value="" style="edgeStyle=orthogonalEdgeStyle;orthogonalLoop=1;jettySize=auto;html=1;rounded=0;fontSize=12;startSize=8;endSize=8;entryX=0;entryY=0;entryDx=0;entryDy=0;exitX=1;exitY=0.5;exitDx=0;exitDy=0;" edge="1" parent="rm-N7uv2QARpRpkkR8JZ-34" source="as8NRprZfqHVH22VCf2Z-36">
          <mxGeometry width="140" relative="1" as="geometry">
            <mxPoint x="470" y="271" as="sourcePoint" />
            <mxPoint x="370.0044660940825" y="103.00446609408247" as="targetPoint" />
            <Array as="points">
              <mxPoint x="470" y="269" />
              <mxPoint x="470" y="261" />
              <mxPoint x="665" y="261" />
              <mxPoint x="665" y="114" />
              <mxPoint x="408" y="114" />
              <mxPoint x="408" y="103" />
            </Array>
          </mxGeometry>
        </mxCell>
        <mxCell id="as8NRprZfqHVH22VCf2Z-38" value="" style="edgeStyle=none;orthogonalLoop=1;jettySize=auto;html=1;rounded=0;fontSize=12;startSize=8;endSize=8;curved=1;entryX=0.5;entryY=0;entryDx=0;entryDy=0;" edge="1" parent="rm-N7uv2QARpRpkkR8JZ-34">
          <mxGeometry width="140" relative="1" as="geometry">
            <mxPoint x="365" y="210" as="sourcePoint" />
            <mxPoint x="365.2" y="230" as="targetPoint" />
            <Array as="points" />
          </mxGeometry>
        </mxCell>
        <mxCell id="as8NRprZfqHVH22VCf2Z-39" value="No ( ยังไม่น่าสนใจ )" style="text;html=1;align=center;verticalAlign=middle;resizable=0;points=[];autosize=1;strokeColor=none;fillColor=none;fontSize=9;" vertex="1" parent="rm-N7uv2QARpRpkkR8JZ-34">
          <mxGeometry x="421" y="239" width="100" height="20" as="geometry" />
        </mxCell>
        <mxCell id="as8NRprZfqHVH22VCf2Z-40" value="Yes ( น่าสนใจ )" style="text;html=1;align=center;verticalAlign=middle;resizable=0;points=[];autosize=1;strokeColor=none;fillColor=none;fontSize=9;" vertex="1" parent="rm-N7uv2QARpRpkkR8JZ-34">
          <mxGeometry x="410" y="289" width="80" height="20" as="geometry" />
        </mxCell>
        <mxCell id="as8NRprZfqHVH22VCf2Z-44" value="" style="edgeStyle=none;curved=1;rounded=0;orthogonalLoop=1;jettySize=auto;html=1;fontSize=12;startSize=8;endSize=8;" edge="1" parent="rm-N7uv2QARpRpkkR8JZ-34" source="as8NRprZfqHVH22VCf2Z-41" target="as8NRprZfqHVH22VCf2Z-43">
          <mxGeometry relative="1" as="geometry" />
        </mxCell>
        <mxCell id="as8NRprZfqHVH22VCf2Z-41" value="โพสต์หางานบนแพลตฟอร์มโซเซียล เช่น &amp;nbsp;fastwork , facebook , Linkedln" style="whiteSpace=wrap;html=1;" vertex="1" parent="rm-N7uv2QARpRpkkR8JZ-34">
          <mxGeometry x="265" y="350" width="200" height="60" as="geometry" />
        </mxCell>
        <mxCell id="as8NRprZfqHVH22VCf2Z-46" value="" style="edgeStyle=none;curved=1;rounded=0;orthogonalLoop=1;jettySize=auto;html=1;fontSize=12;startSize=8;endSize=8;" edge="1" parent="rm-N7uv2QARpRpkkR8JZ-34" source="as8NRprZfqHVH22VCf2Z-43" target="as8NRprZfqHVH22VCf2Z-45">
          <mxGeometry relative="1" as="geometry" />
        </mxCell>
        <mxCell id="as8NRprZfqHVH22VCf2Z-43" value="ลูกค้าทักมาติดต่อสอบถามจ้างงาน" style="whiteSpace=wrap;html=1;" vertex="1" parent="rm-N7uv2QARpRpkkR8JZ-34">
          <mxGeometry x="265" y="430" width="200" height="60" as="geometry" />
        </mxCell>
        <mxCell id="as8NRprZfqHVH22VCf2Z-45" value="พูดคุยเก็บความต้องการของลูกค้า" style="whiteSpace=wrap;html=1;" vertex="1" parent="rm-N7uv2QARpRpkkR8JZ-34">
          <mxGeometry x="265" y="509" width="200" height="60" as="geometry" />
        </mxCell>
        <mxCell id="as8NRprZfqHVH22VCf2Z-47" value="" style="endArrow=classic;html=1;rounded=0;" edge="1" parent="rm-N7uv2QARpRpkkR8JZ-34">
          <mxGeometry width="50" height="50" relative="1" as="geometry">
            <mxPoint x="364.71" y="569" as="sourcePoint" />
            <mxPoint x="365" y="590" as="targetPoint" />
          </mxGeometry>
        </mxCell>
        <mxCell id="as8NRprZfqHVH22VCf2Z-48" value="" style="verticalLabelPosition=bottom;verticalAlign=top;html=1;shape=offPageConnector;rounded=0;size=0.5;" vertex="1" parent="rm-N7uv2QARpRpkkR8JZ-34">
          <mxGeometry x="350" y="590" width="30" height="30" as="geometry" />
        </mxCell>
        <mxCell id="as8NRprZfqHVH22VCf2Z-49" value="ก" style="text;html=1;align=center;verticalAlign=middle;resizable=0;points=[];autosize=1;strokeColor=none;fillColor=none;fontFamily=Sarabun;fontSource=https%3A%2F%2Ffonts.googleapis.com%2Fcss%3Ffamily%3DSarabun;" vertex="1" parent="rm-N7uv2QARpRpkkR8JZ-34">
          <mxGeometry x="350" y="585" width="30" height="30" as="geometry" />
        </mxCell>
        <mxCell id="as8NRprZfqHVH22VCf2Z-50" value="" style="endArrow=classic;html=1;rounded=0;" edge="1" parent="rm-N7uv2QARpRpkkR8JZ-34">
          <mxGeometry width="50" height="50" relative="1" as="geometry">
            <mxPoint x="362.71" y="706" as="sourcePoint" />
            <mxPoint x="363.21" y="736" as="targetPoint" />
          </mxGeometry>
        </mxCell>
        <mxCell id="as8NRprZfqHVH22VCf2Z-51" value="" style="verticalLabelPosition=bottom;verticalAlign=top;html=1;shape=offPageConnector;rounded=0;size=0.5;" vertex="1" parent="rm-N7uv2QARpRpkkR8JZ-34">
          <mxGeometry x="348" y="676" width="30" height="30" as="geometry" />
        </mxCell>
        <mxCell id="as8NRprZfqHVH22VCf2Z-52" value="ก" style="text;html=1;align=center;verticalAlign=middle;resizable=0;points=[];autosize=1;strokeColor=none;fillColor=none;fontFamily=Sarabun;fontSource=https%3A%2F%2Ffonts.googleapis.com%2Fcss%3Ffamily%3DSarabun;" vertex="1" parent="rm-N7uv2QARpRpkkR8JZ-34">
          <mxGeometry x="348" y="671" width="30" height="30" as="geometry" />
        </mxCell>
        <mxCell id="as8NRprZfqHVH22VCf2Z-53" value="หน้าถัดไป" style="text;html=1;align=center;verticalAlign=middle;resizable=0;points=[];autosize=1;strokeColor=none;fillColor=none;fontSize=13;" vertex="1" parent="rm-N7uv2QARpRpkkR8JZ-34">
          <mxGeometry x="390.25" y="585" width="80" height="30" as="geometry" />
        </mxCell>
        <mxCell id="as8NRprZfqHVH22VCf2Z-56" value="" style="edgeStyle=none;curved=1;rounded=0;orthogonalLoop=1;jettySize=auto;html=1;fontSize=12;startSize=8;endSize=8;" edge="1" parent="rm-N7uv2QARpRpkkR8JZ-34" source="as8NRprZfqHVH22VCf2Z-54" target="as8NRprZfqHVH22VCf2Z-55">
          <mxGeometry relative="1" as="geometry" />
        </mxCell>
        <mxCell id="as8NRprZfqHVH22VCf2Z-54" value="วิเคราะห์งานและประเมิณราคา" style="rounded=0;whiteSpace=wrap;html=1;" vertex="1" parent="rm-N7uv2QARpRpkkR8JZ-34">
          <mxGeometry x="283" y="736" width="160" height="44" as="geometry" />
        </mxCell>
        <mxCell id="as8NRprZfqHVH22VCf2Z-58" value="" style="edgeStyle=none;curved=1;rounded=0;orthogonalLoop=1;jettySize=auto;html=1;fontSize=12;startSize=8;endSize=8;" edge="1" parent="rm-N7uv2QARpRpkkR8JZ-34" source="as8NRprZfqHVH22VCf2Z-55" target="as8NRprZfqHVH22VCf2Z-57">
          <mxGeometry relative="1" as="geometry" />
        </mxCell>
        <mxCell id="as8NRprZfqHVH22VCf2Z-55" value="เสนอราคาและเงื่อนไขในการทำงาน" style="whiteSpace=wrap;html=1;rounded=0;" vertex="1" parent="rm-N7uv2QARpRpkkR8JZ-34">
          <mxGeometry x="283" y="805" width="160" height="60" as="geometry" />
        </mxCell>
        <mxCell id="as8NRprZfqHVH22VCf2Z-68" value="" style="edgeStyle=none;curved=1;rounded=0;orthogonalLoop=1;jettySize=auto;html=1;fontSize=12;startSize=8;endSize=8;" edge="1" parent="rm-N7uv2QARpRpkkR8JZ-34" source="as8NRprZfqHVH22VCf2Z-57" target="as8NRprZfqHVH22VCf2Z-67">
          <mxGeometry relative="1" as="geometry" />
        </mxCell>
        <mxCell id="as8NRprZfqHVH22VCf2Z-57" value="ลูกค้าตกลงทำหรือไม่" style="rhombus;whiteSpace=wrap;html=1;rounded=0;" vertex="1" parent="rm-N7uv2QARpRpkkR8JZ-34">
          <mxGeometry x="290" y="890" width="150" height="80" as="geometry" />
        </mxCell>
        <mxCell id="as8NRprZfqHVH22VCf2Z-59" value="No ( ไม่ทำ )" style="text;html=1;align=center;verticalAlign=middle;resizable=0;points=[];autosize=1;strokeColor=none;fillColor=none;fontSize=12;" vertex="1" parent="rm-N7uv2QARpRpkkR8JZ-34">
          <mxGeometry x="443" y="890" width="80" height="30" as="geometry" />
        </mxCell>
        <mxCell id="as8NRprZfqHVH22VCf2Z-60" value="" style="edgeStyle=orthogonalEdgeStyle;orthogonalLoop=1;jettySize=auto;html=1;rounded=0;fontSize=12;startSize=8;endSize=8;entryX=1.427;entryY=0.5;entryDx=0;entryDy=0;entryPerimeter=0;" edge="1" parent="rm-N7uv2QARpRpkkR8JZ-34">
          <mxGeometry width="140" relative="1" as="geometry">
            <mxPoint x="430.73" y="924.6600000000001" as="sourcePoint" />
            <mxPoint x="365" y="318" as="targetPoint" />
            <Array as="points">
              <mxPoint x="590.73" y="925" />
              <mxPoint x="590.73" y="318" />
            </Array>
          </mxGeometry>
        </mxCell>
        <mxCell id="as8NRprZfqHVH22VCf2Z-62" value="" style="edgeStyle=none;curved=1;rounded=0;orthogonalLoop=1;jettySize=auto;html=1;fontSize=12;startSize=8;endSize=8;exitX=0.572;exitY=0.77;exitDx=0;exitDy=0;exitPerimeter=0;" edge="1" parent="rm-N7uv2QARpRpkkR8JZ-34">
          <mxGeometry relative="1" as="geometry">
            <mxPoint x="364.7199999999999" y="326.70000000000005" as="sourcePoint" />
            <mxPoint x="365" y="350" as="targetPoint" />
          </mxGeometry>
        </mxCell>
        <mxCell id="as8NRprZfqHVH22VCf2Z-61" value="" style="ellipse;whiteSpace=wrap;html=1;" vertex="1" parent="rm-N7uv2QARpRpkkR8JZ-34">
          <mxGeometry x="360" y="319" width="10" height="10" as="geometry" />
        </mxCell>
        <mxCell id="as8NRprZfqHVH22VCf2Z-66" value="Yes ( ทำ )" style="text;html=1;align=center;verticalAlign=middle;resizable=0;points=[];autosize=1;strokeColor=none;fillColor=none;fontSize=12;" vertex="1" parent="rm-N7uv2QARpRpkkR8JZ-34">
          <mxGeometry x="395.25" y="951" width="70" height="30" as="geometry" />
        </mxCell>
        <mxCell id="as8NRprZfqHVH22VCf2Z-70" value="" style="edgeStyle=none;curved=1;rounded=0;orthogonalLoop=1;jettySize=auto;html=1;fontSize=12;startSize=8;endSize=8;" edge="1" parent="rm-N7uv2QARpRpkkR8JZ-34" source="as8NRprZfqHVH22VCf2Z-67">
          <mxGeometry relative="1" as="geometry">
            <mxPoint x="365" y="1071" as="targetPoint" />
          </mxGeometry>
        </mxCell>
        <mxCell id="as8NRprZfqHVH22VCf2Z-67" value="ให้ลูกค้าเซ็นสัญญาพร้อมวางเงินมัดจำ" style="whiteSpace=wrap;html=1;rounded=0;" vertex="1" parent="rm-N7uv2QARpRpkkR8JZ-34">
          <mxGeometry x="280" y="991" width="170" height="60" as="geometry" />
        </mxCell>
        <mxCell id="as8NRprZfqHVH22VCf2Z-72" value="" style="edgeStyle=none;curved=1;rounded=0;orthogonalLoop=1;jettySize=auto;html=1;fontSize=12;startSize=8;endSize=8;" edge="1" parent="rm-N7uv2QARpRpkkR8JZ-34" target="as8NRprZfqHVH22VCf2Z-71">
          <mxGeometry relative="1" as="geometry">
            <mxPoint x="365" y="1131" as="sourcePoint" />
          </mxGeometry>
        </mxCell>
        <mxCell id="as8NRprZfqHVH22VCf2Z-74" value="" style="edgeStyle=none;curved=1;rounded=0;orthogonalLoop=1;jettySize=auto;html=1;fontSize=12;startSize=8;endSize=8;" edge="1" parent="rm-N7uv2QARpRpkkR8JZ-34" source="as8NRprZfqHVH22VCf2Z-71" target="as8NRprZfqHVH22VCf2Z-73">
          <mxGeometry relative="1" as="geometry" />
        </mxCell>
        <mxCell id="as8NRprZfqHVH22VCf2Z-71" value="เริ่มทำงาน ออกแบบโครงร่างและเขียนเว็บ" style="whiteSpace=wrap;html=1;rounded=0;" vertex="1" parent="rm-N7uv2QARpRpkkR8JZ-34">
          <mxGeometry x="280" y="1155" width="170" height="60" as="geometry" />
        </mxCell>
        <mxCell id="as8NRprZfqHVH22VCf2Z-76" value="" style="edgeStyle=none;curved=1;rounded=0;orthogonalLoop=1;jettySize=auto;html=1;fontSize=12;startSize=8;endSize=8;" edge="1" parent="rm-N7uv2QARpRpkkR8JZ-34" source="as8NRprZfqHVH22VCf2Z-73" target="as8NRprZfqHVH22VCf2Z-75">
          <mxGeometry relative="1" as="geometry" />
        </mxCell>
        <mxCell id="as8NRprZfqHVH22VCf2Z-73" value="รายงานความคืบหน้าให้ลูกค้า" style="whiteSpace=wrap;html=1;rounded=0;" vertex="1" parent="rm-N7uv2QARpRpkkR8JZ-34">
          <mxGeometry x="280" y="1241" width="170" height="60" as="geometry" />
        </mxCell>
        <mxCell id="as8NRprZfqHVH22VCf2Z-78" value="" style="edgeStyle=none;curved=1;rounded=0;orthogonalLoop=1;jettySize=auto;html=1;fontSize=12;startSize=8;endSize=8;" edge="1" parent="rm-N7uv2QARpRpkkR8JZ-34" source="as8NRprZfqHVH22VCf2Z-75" target="as8NRprZfqHVH22VCf2Z-77">
          <mxGeometry relative="1" as="geometry" />
        </mxCell>
        <mxCell id="as8NRprZfqHVH22VCf2Z-75" value="ส่งตัวอย่างให้ลูกค้าดู" style="whiteSpace=wrap;html=1;rounded=0;" vertex="1" parent="rm-N7uv2QARpRpkkR8JZ-34">
          <mxGeometry x="280" y="1321" width="170" height="60" as="geometry" />
        </mxCell>
        <mxCell id="as8NRprZfqHVH22VCf2Z-82" value="" style="edgeStyle=none;curved=1;rounded=0;orthogonalLoop=1;jettySize=auto;html=1;fontSize=12;startSize=8;endSize=8;" edge="1" parent="rm-N7uv2QARpRpkkR8JZ-34" source="as8NRprZfqHVH22VCf2Z-77" target="as8NRprZfqHVH22VCf2Z-81">
          <mxGeometry relative="1" as="geometry" />
        </mxCell>
        <mxCell id="as8NRprZfqHVH22VCf2Z-77" value="ลูกค้าต้องการแก้ไข" style="rhombus;whiteSpace=wrap;html=1;rounded=0;" vertex="1" parent="rm-N7uv2QARpRpkkR8JZ-34">
          <mxGeometry x="280" y="1400" width="170" height="80" as="geometry" />
        </mxCell>
        <mxCell id="as8NRprZfqHVH22VCf2Z-79" value="" style="edgeStyle=orthogonalEdgeStyle;orthogonalLoop=1;jettySize=auto;html=1;rounded=0;fontSize=12;startSize=8;endSize=8;" edge="1" parent="rm-N7uv2QARpRpkkR8JZ-34">
          <mxGeometry width="140" relative="1" as="geometry">
            <mxPoint x="450" y="1440" as="sourcePoint" />
            <mxPoint x="370" y="324" as="targetPoint" />
            <Array as="points">
              <mxPoint x="450" y="1440" />
              <mxPoint x="530" y="1440" />
              <mxPoint x="530" y="324" />
            </Array>
          </mxGeometry>
        </mxCell>
        <mxCell id="as8NRprZfqHVH22VCf2Z-80" value="NO ( ไม่แก้ไข )" style="text;html=1;align=center;verticalAlign=middle;resizable=0;points=[];autosize=1;strokeColor=none;fillColor=none;fontSize=12;" vertex="1" parent="rm-N7uv2QARpRpkkR8JZ-34">
          <mxGeometry x="426" y="1400" width="100" height="30" as="geometry" />
        </mxCell>
        <mxCell id="as8NRprZfqHVH22VCf2Z-86" value="" style="edgeStyle=none;curved=1;rounded=0;orthogonalLoop=1;jettySize=auto;html=1;fontSize=12;startSize=8;endSize=8;" edge="1" parent="rm-N7uv2QARpRpkkR8JZ-34" source="as8NRprZfqHVH22VCf2Z-81" target="as8NRprZfqHVH22VCf2Z-85">
          <mxGeometry relative="1" as="geometry" />
        </mxCell>
        <mxCell id="as8NRprZfqHVH22VCf2Z-81" value="แก้ไขตามจุดที่ลูกค้าต้องการให้แก้" style="whiteSpace=wrap;html=1;rounded=0;" vertex="1" parent="rm-N7uv2QARpRpkkR8JZ-34">
          <mxGeometry x="280" y="1510" width="170" height="60" as="geometry" />
        </mxCell>
        <mxCell id="as8NRprZfqHVH22VCf2Z-83" value="Yes ( แก้ไข )" style="text;html=1;align=center;verticalAlign=middle;resizable=0;points=[];autosize=1;strokeColor=none;fillColor=none;fontSize=12;" vertex="1" parent="rm-N7uv2QARpRpkkR8JZ-34">
          <mxGeometry x="390.25" y="1470" width="90" height="30" as="geometry" />
        </mxCell>
        <mxCell id="as8NRprZfqHVH22VCf2Z-84" value="รับเงินมัดจำ" style="shape=parallelogram;perimeter=parallelogramPerimeter;whiteSpace=wrap;html=1;fixedSize=1;" vertex="1" parent="rm-N7uv2QARpRpkkR8JZ-34">
          <mxGeometry x="270" y="1070" width="190" height="60" as="geometry" />
        </mxCell>
        <mxCell id="as8NRprZfqHVH22VCf2Z-85" value="ส่งงานรอบ Final ให้ลูกค้า" style="whiteSpace=wrap;html=1;rounded=0;" vertex="1" parent="rm-N7uv2QARpRpkkR8JZ-34">
          <mxGeometry x="280" y="1600" width="170" height="60" as="geometry" />
        </mxCell>
        <mxCell id="as8NRprZfqHVH22VCf2Z-87" value="" style="endArrow=classic;html=1;rounded=0;" edge="1" parent="rm-N7uv2QARpRpkkR8JZ-34">
          <mxGeometry width="50" height="50" relative="1" as="geometry">
            <mxPoint x="364.71" y="1875" as="sourcePoint" />
            <mxPoint x="365.21" y="1905" as="targetPoint" />
          </mxGeometry>
        </mxCell>
        <mxCell id="as8NRprZfqHVH22VCf2Z-88" value="" style="verticalLabelPosition=bottom;verticalAlign=top;html=1;shape=offPageConnector;rounded=0;size=0.5;" vertex="1" parent="rm-N7uv2QARpRpkkR8JZ-34">
          <mxGeometry x="350" y="1845" width="30" height="30" as="geometry" />
        </mxCell>
        <mxCell id="as8NRprZfqHVH22VCf2Z-89" value="ข" style="text;html=1;align=center;verticalAlign=middle;resizable=0;points=[];autosize=1;strokeColor=none;fillColor=none;fontFamily=Sarabun;fontSource=https%3A%2F%2Ffonts.googleapis.com%2Fcss%3Ffamily%3DSarabun;" vertex="1" parent="rm-N7uv2QARpRpkkR8JZ-34">
          <mxGeometry x="350" y="1840" width="30" height="30" as="geometry" />
        </mxCell>
        <mxCell id="as8NRprZfqHVH22VCf2Z-90" value="" style="verticalLabelPosition=bottom;verticalAlign=top;html=1;shape=offPageConnector;rounded=0;size=0.5;" vertex="1" parent="rm-N7uv2QARpRpkkR8JZ-34">
          <mxGeometry x="350" y="1695" width="30" height="30" as="geometry" />
        </mxCell>
        <mxCell id="as8NRprZfqHVH22VCf2Z-91" value="ข" style="text;html=1;align=center;verticalAlign=middle;resizable=0;points=[];autosize=1;strokeColor=none;fillColor=none;fontFamily=Sarabun;fontSource=https%3A%2F%2Ffonts.googleapis.com%2Fcss%3Ffamily%3DSarabun;" vertex="1" parent="rm-N7uv2QARpRpkkR8JZ-34">
          <mxGeometry x="350" y="1690" width="30" height="30" as="geometry" />
        </mxCell>
        <mxCell id="as8NRprZfqHVH22VCf2Z-92" value="" style="edgeStyle=none;orthogonalLoop=1;jettySize=auto;html=1;rounded=0;fontSize=12;startSize=8;endSize=8;curved=1;exitX=0.5;exitY=1;exitDx=0;exitDy=0;" edge="1" parent="rm-N7uv2QARpRpkkR8JZ-34" source="as8NRprZfqHVH22VCf2Z-85">
          <mxGeometry width="140" relative="1" as="geometry">
            <mxPoint x="339" y="1810" as="sourcePoint" />
            <mxPoint x="365" y="1692" as="targetPoint" />
            <Array as="points" />
          </mxGeometry>
        </mxCell>
        <mxCell id="as8NRprZfqHVH22VCf2Z-95" value="" style="edgeStyle=none;curved=1;rounded=0;orthogonalLoop=1;jettySize=auto;html=1;fontSize=12;startSize=8;endSize=8;" edge="1" parent="rm-N7uv2QARpRpkkR8JZ-34" source="as8NRprZfqHVH22VCf2Z-93" target="as8NRprZfqHVH22VCf2Z-94">
          <mxGeometry relative="1" as="geometry" />
        </mxCell>
        <mxCell id="as8NRprZfqHVH22VCf2Z-93" value="รับเงินส่วนที่เหลือ" style="rounded=0;whiteSpace=wrap;html=1;" vertex="1" parent="rm-N7uv2QARpRpkkR8JZ-34">
          <mxGeometry x="280" y="1907" width="170" height="73" as="geometry" />
        </mxCell>
        <mxCell id="as8NRprZfqHVH22VCf2Z-94" value="ขอ Feedback &amp;nbsp;จากลูกค้าว่าต้องปรับปรุงหรือแก้ไขอะไรเพิ่มไหม" style="whiteSpace=wrap;html=1;rounded=0;" vertex="1" parent="rm-N7uv2QARpRpkkR8JZ-34">
          <mxGeometry x="280" y="2000" width="170" height="60" as="geometry" />
        </mxCell>
        <mxCell id="as8NRprZfqHVH22VCf2Z-96" value="" style="edgeStyle=none;orthogonalLoop=1;jettySize=auto;html=1;rounded=0;fontSize=12;startSize=8;endSize=8;curved=1;exitX=0.5;exitY=1;exitDx=0;exitDy=0;entryX=0.5;entryY=0;entryDx=0;entryDy=0;" edge="1" parent="rm-N7uv2QARpRpkkR8JZ-34" source="as8NRprZfqHVH22VCf2Z-94" target="rm-N7uv2QARpRpkkR8JZ-36">
          <mxGeometry width="140" relative="1" as="geometry">
            <mxPoint x="420" y="2210" as="sourcePoint" />
            <mxPoint x="560" y="2210" as="targetPoint" />
            <Array as="points" />
          </mxGeometry>
        </mxCell>
        <mxCell id="rm-N7uv2QARpRpkkR8JZ-37" value="&lt;font data-font-src=&quot;https://fonts.googleapis.com/css?family=Sarabun&quot; face=&quot;Sarabun&quot;&gt;โจทย์ปัญหา&lt;/font&gt;" style="swimlane;whiteSpace=wrap;html=1;" parent="1" vertex="1">
          <mxGeometry x="-732.5" y="320" width="675" height="190" as="geometry" />
        </mxCell>
        <mxCell id="rm-N7uv2QARpRpkkR8JZ-38" value="&lt;p style=&quot;line-height: 120%;&quot;&gt;&lt;font data-font-src=&quot;https://fonts.googleapis.com/css?family=Sarabun&quot; face=&quot;Sarabun&quot; style=&quot;font-size: 14px;&quot;&gt;&lt;b&gt;&lt;u&gt;โจทย์&lt;/u&gt;&lt;/b&gt; จงเขียน Flowchart เพื่ออธิบายกระบวนการในการรับงานทำเว็บไซต์จากลูกค้า&lt;br&gt;&amp;nbsp; &amp;nbsp; &amp;nbsp; &amp;nbsp; &amp;nbsp; (ดูตัวอย่างได้จากเว็บไซท์ https://www.fastwork.com)&lt;br&gt;&lt;/font&gt;&lt;br&gt;&lt;/p&gt;&lt;p style=&quot;line-height: 120%;&quot;&gt;&lt;font face=&quot;Sarabun&quot;&gt;&lt;b&gt;&lt;u&gt;หมายเหตุ&lt;/u&gt;&lt;/b&gt;&amp;nbsp;ควรมีขั้นตอนครบถ้วน เปรียบเสมือนตัวคุณเอง ที่กำลังอยากเริ่มต้นรับงานทำเว็บไซต์จากลูกค้าของคุณเอง&lt;br&gt;&amp;nbsp; &amp;nbsp; &amp;nbsp; &amp;nbsp; คุณจะต้องคำนึงถึงขั้นตอนทุกอย่างให้รอบคอบตั้งแต่การโพสหางาน การพูดคุยเพื่อคัดกรองลูกค้า&lt;br&gt;&amp;nbsp; &amp;nbsp; &amp;nbsp; &amp;nbsp; การพูดคุยเรื่องความต้องการของลูกค้าเป็นข้อๆให้ชัดเจน การเซ็นต์สัญญารับงาน การรับเงินล่วงหน้าก่อน ฯลฯ&lt;/font&gt;&lt;/p&gt;&lt;p style=&quot;line-height: 120%;&quot;&gt;&lt;font face=&quot;Sarabun&quot;&gt;&lt;br&gt;&lt;/font&gt;&lt;/p&gt;" style="text;html=1;align=left;verticalAlign=top;resizable=0;points=[];autosize=1;strokeColor=none;fillColor=none;fontSize=14;" parent="rm-N7uv2QARpRpkkR8JZ-37" vertex="1">
          <mxGeometry x="15" y="40" width="660" height="200" as="geometry" />
        </mxCell>
      </root>
    </mxGraphModel>
  </diagram>
</mxfile>
